# xmcd
#
# Track frame offsets:
#	150
#	28231
#	48100
#	69040
#	89754
#	106605
#	124247
#	162845
#	179023
#	198633
#	215429
#	233230
#
# Disc length: 3389 seconds
#
# Revision: 3
# Processed by: cddbd v1.5.1PL2 Copyright (c) Steve Scherf et al.
# Submitted via: MusicWizard 7.0.2
#
DISCID=a50d3b0c
DTITLE=Various Artist - Musikexpress 71
DYEAR=2002
DGENRE=o
TTITLE0=Slobberbone - FInd the out
TTITLE1=Reto Burrell - Overboard
TTITLE2=The Hooblers - Forget
TTITLE3=Jason Ringenberg with Steve Earle - Bible and a gun
TTITLE4=Steve Wynn - One less shining star
TTITLE5=Red Star Belgrade - We tried
TTITLE6=Rich Hopkins and Luminarios - Mumbly peg
TTITLE7=Chuck Prophet - After the rain
TTITLE8=John Cate Band - Longer way
TTITLE9=Fred Haring - Murder by the ballpoint pen
TTITLE10=Delbert McClinton - Lone star blues
TTITLE11=Hardpan - Tucson sky
EXTD=
EXTT0=
EXTT1=
EXTT2=
EXTT3=
EXTT4=
EXTT5=
EXTT6=
EXTT7=
EXTT8=
EXTT9=
EXTT10=
EXTT11=
PLAYORDER=
